<?xml version="1.0" standalone="no"?><svg xmlns="http://www.w3.org/2000/svg" viewBox="0 0 1440 320"><path fill="#000b76" fill-opacity="0.2" d="M0,192L21.8,186.7C43.6,181,87,171,131,160C174.5,149,218,139,262,138.7C305.5,139,349,149,393,165.3C436.4,181,480,203,524,202.7C567.3,203,611,181,655,154.7C698.2,128,742,96,785,74.7C829.1,53,873,43,916,32C960,21,1004,11,1047,16C1090.9,21,1135,43,1178,74.7C1221.8,107,1265,149,1309,186.7C1352.7,224,1396,256,1418,272L1440,288L1440,320L1418.2,320C1396.4,320,1353,320,1309,320C1265.5,320,1222,320,1178,320C1134.5,320,1091,320,1047,320C1003.6,320,960,320,916,320C872.7,320,829,320,785,320C741.8,320,698,320,655,320C610.9,320,567,320,524,320C480,320,436,320,393,320C349.1,320,305,320,262,320C218.2,320,175,320,131,320C87.3,320,44,320,22,320L0,320Z"></path></svg>